<?xml version="1.0" encoding="utf-8"?>
<!-- Generator: Adobe Illustrator 18.1.1, SVG Export Plug-In . SVG Version: 6.00 Build 0)  -->
<svg version="1.1" id="Layer_1" xmlns="http://www.w3.org/2000/svg" xmlns:xlink="http://www.w3.org/1999/xlink" x="0px" y="0px"
	 viewBox="0 200.7 792 214.3" enable-background="new 0 200.7 792 214.3" xml:space="preserve">
<circle fill="#231F20" cx="386.7" cy="307" r="8.1"/>
<g enable-background="new    ">
	<path fill="#231F20" d="M49.4,365.5c-13.7-3-23.7-9.5-30.1-19.6c-6.4-10-9.7-21.8-9.9-35.3c-0.2-9.5,1.1-18.9,4.2-28.4
		c3-9.5,7.1-18.5,12.2-26.9c5.1-8.4,11-16,17.5-22.7c6.6-6.7,13.3-12,20.1-15.9c2.3-1.3,4.6-2.6,6.8-3.9c1.8-1.1,3.6-2.2,5.3-3.3
		c1.7-1.1,3-2.1,3.9-3c1.5,3,2.6,5.5,3.4,7.5c0.7,2,1.4,4.2,1.9,6.5c0.5,2.3,0.6,4.2,0.4,5.7c0,0.7-0.5,1.7-1.4,3
		c-0.9,1.3-2.7,2.9-5.2,4.6c-5.9,2.3-11.9,6-18.1,10.9c-6.2,4.9-11.8,10.8-16.9,17.5c-5.1,6.8-9.5,14.2-13.1,22.3
		c-3.7,8.1-5.9,16.7-6.8,25.7c-0.9,8.1-0.4,15.1,1.2,21.1c1.7,6,4.1,11,7.4,15c3.3,4,7.2,7.1,11.8,9.2c4.6,2.1,9.4,3.5,14.6,4
		c8.5,0.9,16.3,0.3,23.3-1.7c7-2,13.7-6.2,20.2-12.5l-4-2.1c-5.8-2.8-10.4-6.6-13.8-11.4c-3.4-4.8-6-9.9-7.8-15.4
		c-1.8-5.4-2.9-11.1-3.2-16.9c-0.3-5.9-0.2-11.4,0.4-16.5c0.8-7.4,2.5-15.1,5.1-23c2.5-7.9,6-15.2,10.3-21.7
		c4.3-6.5,9.4-11.8,15.4-15.7c5.9-3.9,12.6-5.5,20-4.6c5.8,0.6,10.5,2.8,14,6.5c3.5,3.8,6.1,8.3,7.8,13.7c1.7,5.3,2.7,11,3,16.9
		c0.3,6,0.3,11.4,0,16.4c-0.8,6.7-2.3,13.3-4.3,19.8c-2.1,6.5-4.4,12.7-7.2,18.7c-2.7,6-5.7,11.5-9,16.5c-3.3,5-6.4,9.3-9.4,12.8
		c6.1,0.6,11.1,0,15.2-1.9c4.1-1.8,7.9-4.3,11.3-7.3c3.4-3.3,6.1-6.1,7.9-8.4c1.8-2.3,3.2-4.3,4.2-5.8c0.9-1.6,1.6-2.7,1.9-3.3
		c0.4-0.7,0.9-1,1.5-1c0.9,0,1.5,0.3,1.7,0.9c0.2,0.6,0.3,1,0.3,1.2c0,0.7-0.9,3-2.7,7s-4.6,8.3-8.4,12.8
		c-3.8,4.5-8.8,8.4-14.9,11.7c-6.1,3.2-13.8,4.4-23,3.5c-0.9,0-2.2-0.3-4-0.8c-4.1,3.5-8.4,6.6-12.7,9.3c-4.3,2.7-9,4.9-14,6.6
		c-5,1.7-10.3,2.7-15.9,3C62.3,367.3,56.1,366.8,49.4,365.5z M87.7,293.2c-1.1,8.7,0,17.3,3.2,25.5c3.2,8.3,9.2,14.4,18.2,18.4
		c2.1-3.1,4.4-6.8,6.8-11.2c2.5-4.3,4.8-9,6.9-14s3.9-10.1,5.4-15.2c1.5-5.1,2.5-10.1,3-14.8c0.9-8.5,1-15.6,0.5-21.2
		c-0.6-5.6-1.5-10.1-2.7-13.4c-1.3-3.3-2.7-5.6-4.2-7c-1.5-1.4-3-2.1-4.3-2.1c-3.4-0.3-6.8,1.3-10.4,4.7c-3.6,3.4-6.9,7.9-10.1,13.4
		c-3.2,5.6-5.8,11.6-8,18.2C89.7,281.1,88.3,287.3,87.7,293.2z"/>
	<path fill="#231F20" d="M199.6,345.9c-3.1-4.6-4.5-10.6-4.3-18c0.1-6.1,0.9-11.5,2.4-16.3c1.5-4.8,3.4-10.2,5.8-16.2
		c-2.1,3.8-4.7,8.4-7.9,13.8c-3.2,5.4-6.3,11-9.3,16.7c-3,5.7-5.8,11-8.3,16c-2.5,5-4.1,8.7-4.8,11.2c-1.2,2.9-2.4,5.1-3.5,6.7
		c-1.2,1.5-2.5,3-4,4.3c-1.5,1.3-3.1,2-4.9,1.9c-5.4-0.1-8.9-2.3-10.7-6.5c-1.7-4.2-2.5-9.7-2.3-16.4c0.2-7.4,1.2-14.7,3.2-21.9
		c2-7.2,4.1-13.6,6.5-19.4c2.4-5.8,4.6-10.6,6.7-14.5c2.1-3.9,3.4-6.3,3.9-7.2c1.4-2.7,2.8-5.8,4.3-9.5c1.4-3.7,2.4-6.3,2.9-7.9
		c0.7,0,1.9,0.6,3.7,1.8c1.8,1.2,3.5,2.6,5.1,4.3c1.6,1.7,3.1,3.6,4.4,5.7c1.3,2.1,1.9,4,1.9,5.8c-0.1,3.8-1.5,8.1-4.3,12.7
		c-2.8,4.7-5.9,9.7-9.3,15.1c-3.4,5.4-6.5,11.2-9.3,17.2c-2.8,6-4.3,12.4-4.5,19.1c0,1.8,0,3.2,0.2,4.1c7.7-14,14.4-25.6,20.2-34.8
		c5.7-9.2,10.7-16.6,14.8-22.3c4.2-5.6,7.6-10.1,10.4-13.3c2.8-3.2,5-5.8,6.8-8c1.7-2.1,3.1-4,4-5.6c0.9-1.7,1.8-4.1,2.5-7.2
		c0.2,0,1.2,0.5,2.8,1.6c1.7,1,3.4,2.4,5.1,4.2c1.8,1.7,3.4,3.6,4.9,5.5c1.5,1.9,2.3,3.9,2.2,6c0,0.7-0.2,1.9-0.6,3.7
		c-0.4,1.8-1,3.1-1.9,4c-1.9,3.8-4.2,7.7-6.8,11.8c-2.7,4.1-5.2,8.4-7.7,12.8c-2.5,4.4-4.6,9-6.4,13.5c-1.8,4.6-2.7,9.1-2.8,13.6
		c-0.1,2.5,0.2,4.6,0.7,6.3c0.5,1.7,1.8,2.6,3.8,2.6c2.9,0.1,6.8-2.2,11.8-6.7c4.9-4.5,9.8-11.9,14.5-22.1l0.7-0.3
		c0.7,0,1.3,0.4,2,1.1l0.7,0.7c0,0.5-0.8,2.6-2.3,6.5c-1.6,3.9-3.7,8.2-6.5,12.8c-2.8,4.7-6.2,8.9-10.2,12.6
		c-4,3.7-8.5,5.5-13.4,5.4c-2,0-4.2-0.5-6.4-1.5C203.7,350.5,201.6,348.6,199.6,345.9z"/>
</g>
<g enable-background="new    ">
	<path fill="#231F20" d="M320.4,326.4c0.5,0.5,0.7,1,0.7,1.5c-3.9,6.9-8.4,12.9-13.5,18c-4.3,4.4-9.8,8.4-16.5,12
		c-6.7,3.6-14.4,5.3-23.1,5.1c-6.5-0.1-11.9-1.6-16.3-4.5c-4.4-2.8-8-6.3-10.6-10.5c-2.7-4.2-4.5-8.6-5.5-13.4
		c-1-4.8-1.5-9-1.4-12.7c0.2-8.5,1.7-16.6,4.6-24.4c2.9-7.8,6.8-14.7,11.7-20.9c4.9-6.1,10.3-11,16.4-14.6
		c6.1-3.6,12.3-5.3,18.8-5.2c8,0.2,14.1,2.5,18.3,7.1c4.3,4.6,6.3,9.5,6.2,14.7c-0.1,5.2-1.3,10.2-3.7,14.9
		c-2.3,4.7-5.5,8.8-9.4,12.3c-3.9,3.5-8.5,6.3-13.8,8.3c-5.3,2-10.8,2.9-16.5,2.8c-4-0.1-7.3-0.6-10.1-1.5c-2.7-0.9-4.7-2-5.9-3.3
		c-1.6,4.4-2.4,8.9-2.5,13.4c-0.2,7,1.9,13.3,6.1,19c4.2,5.7,10,8.6,17.2,8.8c5.5,0.1,11.1-1.3,16.7-4.1c5.7-2.9,10.1-5.4,13.4-7.6
		c3.8-2.7,6.8-5,8.9-6.9c2.2-1.9,3.8-3.6,4.8-4.9c1-1.3,1.7-2.3,2.1-2.9c0.4-0.6,0.8-0.9,1.3-0.9C319.4,326,319.9,326.1,320.4,326.4
		z M262.1,290.3c-3.6,4.9-6.8,10.3-9.7,16.2c0.7,0.3,2.4,0.4,4.8,0.5c3.7,0.1,7.4-0.7,10.9-2.4c3.5-1.7,6.6-3.7,9.3-6.1
		c2.7-2.4,4.8-5.1,6.5-7.9c1.7-2.8,2.5-5.2,2.6-7.2c0.1-3.2-1.6-4.9-5.1-5c-2.5-0.1-5.4,0.8-8.8,2.6
		C269.2,282.8,265.7,285.9,262.1,290.3z"/>
</g>
<g>
	<path fill="#231F20" d="M498.3,367.6c-13.9-2.8-21.2-8.3-28.5-21.5c-5.8-10.6-9.3-23-9.8-36.8c-0.5-9.6,0.8-19.2,3.6-29
		c2.8-9.8,6.8-18.9,11.9-27.5c5-8.6,15.9-19.7,22.3-26.7c6.5-7,13.2-10.8,20-14.9c2.3-1.3,4.6-2.6,6.8-4.1c1.8-1.2,5.3-2.3,7-3.5
		s6.3-2.2,7.3-3c0.8,3.3,0.3,5,0.3,7.4c0,2.2-0.2,4.3,0.3,6.5c0.5,2.3,0.7,4.3,0.5,5.8c0,0.7-0.5,1.7-1.3,3.1c-1,1.3-2.6,3-5.1,4.8
		c-6,2.5-15.4,7.9-21.5,13.1c-6.1,5.1-16.9,14.4-21.9,21.4c-5,7-9.3,14.6-12.9,22.8c-3.6,8.3-5.6,17.1-6.5,26.2
		c-0.7,8.3-0.2,13.7,1.7,19.7c1.8,6.1,6.1,14.4,9.4,18.4c3.5,4,5.8,5.5,10.4,7.4c4.6,2,9.6,5,14.9,5.5c8.6,0.7,16.6,0,23.7-2.2
		c7.1-2.2,13.9-8.1,20.2-14.7l-4.1-2c-6-2.8-10.6-6.6-14.2-11.4c-3.5-4.8-6.3-9.9-8.1-15.4c-2-5.5-3.1-11.3-3.5-17.1
		c-0.5-6-0.5-11.6,0-16.7c0.7-7.4,2.3-15.4,4.6-23.5c2.5-8.1,5.8-15.6,9.9-22.2c4.3-6.8,9.3-13.7,15.2-17.9c6-4.1,12.7-5.8,20.2-5.1
		c6,0.5,10.8,2.6,14.4,6.5s6.3,8.3,8.1,13.7c1.8,5.3,3,11.1,3.3,17.1c0.5,6.1,0.5,11.6,0.3,16.6c-0.7,6.8-2,13.6-4,20.2
		c-2,6.6-4.3,12.9-7,19.2c-2.6,6.1-5.6,11.8-8.8,16.9c-3.1,5.1-6.3,11.1-9.3,14.7c6.1,0.5,11.3-0.2,15.4-2.2c4.1-2,7.9-4.5,11.3-7.6
		c3.5-3.5,6.1-6.3,7.9-8.8c1.8-2.3,3.1-4.3,4.1-6c1-1.7,1.5-2.8,1.8-3.5c0.3-0.7,0.8-1,1.5-1c0.8,0,1.5,0.3,1.7,0.8
		c0.2,0.5,0.3,1,0.3,1.2c0,0.7-0.8,3.1-2.6,7.1c-1.7,4.1-4.5,8.4-8.3,13.1s-8.8,8.8-14.9,12.1c-6.1,3.5-13.9,4.8-23.3,4
		c-1,0-2.3-0.2-4.1-0.7c-4.1,3.6-8.3,7-12.7,9.8c-4.3,2.8-9.1,5.1-14.1,7s-10.4,3-16.1,3.3C511.4,369.1,506.6,368.7,498.3,367.6z
		 M535.9,293.4c-1,8.9,0.3,17.5,3.6,25.8c3.5,8.3,9.6,14.4,18.7,18.4c2-3.1,4.3-7,6.8-11.4s4.6-9.3,6.8-14.4
		c2.2-5.1,3.8-10.3,5.1-15.6c1.3-5.3,2.3-10.3,2.8-15.1c0.7-8.6,0.7-15.9,0-21.5c-0.7-5.6-1.7-10.3-3-13.6s-2.8-5.6-4.5-7
		s-3.1-2-4.5-2c-3.5-0.2-7,1.3-10.4,5c-3.5,3.5-7,8.1-9.9,13.9c-3.1,5.6-5.6,11.9-7.8,18.7C537.5,281.2,536.2,287.5,535.9,293.4z"/>
	<path fill="#231F20" d="M655.4,336.1c-3.5-5.1-3.6-11.8-3.6-20.2c0-6.8,2.5-13.1,4-18.4c1.5-5.5,7-14.9,9.4-21.7
		c-2.3,4.3-11.8,12.9-15.2,19c-3.5,6.3-6.8,12.6-10.1,19c-3.3,6.5-6.3,12.6-8.9,18.2s-4.5,9.9-5.1,12.7c-1.3,3.3-2.5,5.8-3.8,7.6
		c-1.3,1.8-1.2,5.1-2.8,6.6c-1.7,1.5-3.5,2.3-5.5,2.3c-6.1,0-11.8-4-13.7-8.8c-2-4.6,0.3-9.3,0.3-16.9c0-8.4,1-16.6,3.1-24.7
		c2-8.1,4.3-15.4,7-22c2.5-6.6,3.3-12.1,5.6-16.6c2.3-4.5,3.6-7.1,4.1-8.1c1.5-3,3.1-6.6,4.6-10.8c1.5-4.1,2.5-7.1,3.1-8.9
		c0.8,0,0.5-1,2.5,0.3s4,2.8,6,4.8c1.8,2,3.6,4,5.1,6.3c1.5,2.3,2.3,4.5,2.3,6.5c0,4.3-1.5,9.1-4.6,14.4
		c-3.1,5.3-6.5,11.1-10.1,17.2c-3.6,6.3-7.1,12.7-10.1,19.5c-3,6.8-4.6,10.8-4.6,18.4c0,2,0.2,3.5,0.3,4.6
		c8.4-15.9,14.1-25.8,20.4-36.4c6.3-10.4,13.4-19,17.9-25.5c4.5-6.5,8.4-11.6,11.4-15.2c3-3.6,5.5-6.6,7.4-9.1
		c2-2.5,3.3-4.6,4.5-6.5c1-1.8,0.7-2.8,4.3-6.5c0.3,0,3,0.7,5,1.7c1.8,1.2,2,1.3,4,3.1c2,2,2.5,3.6,4.3,5.8c1.8,2.2,2.6,4.3,2.6,6.6
		c0,0.8-0.2,2.2-0.7,4.1c-0.3,2-1.2,3.5-2.2,4.6c-2,4.3-4.5,8.8-7.4,13.4c-3,4.6-5.8,9.6-8.4,14.6c-2.6,5.1-5,10.3-7,15.4
		s-2.8,10.3-3,15.4c0,2.8,0.3,5.1,1,7.1c0.7,2,2.2,2.8,4.3,2.8c3.3,0,7.6-2.6,13.2-7.8c5.5-5.1,10.8-13.6,15.9-25.3l0.8-0.3
		c0.8,0,1.5,0.3,2.3,1.2l0.8,0.8c0,0.5-0.8,3-2.5,7.4c-1.7,4.5-4,9.3-7.1,14.6c-3.1,5.3-6.8,10.1-11.3,14.4s-9.4,6.5-15.1,6.5
		c-2.3,0-4.6-0.5-7.3-1.5C660.1,341.1,657.7,339.1,655.4,336.1z"/>
	<path fill="#231F20" d="M783.7,310.3c0.5,0.5,0.7,1,0.7,1.3c-3.5,6.5-15.7,21.9-20.4,26.7c-4,4.1-8.9,7.8-14.9,11.3
		c-6.1,3.5-14.7,5.1-22.7,5.1c-6,0-10.9-1.3-15.1-3.8s-7.4-5.6-9.9-9.4c-2.5-3.8-4.3-7.8-5.3-12.3c-1-4.3-1.5-8.3-1.5-11.6
		c0-7.8,1.3-15.2,3.8-22.3c2.5-7.1,6-13.6,10.3-19.4c4.3-5.6,9.3-10.3,14.7-13.6c5.5-3.5,11.3-5.1,17.1-5.1c7.3,0,12.9,2.2,16.9,6.3
		s6,8.6,6,13.4c0,4.8-1,9.4-3.1,13.7c-2,4.3-4.8,8.1-8.4,11.4c-3.5,3.3-7.8,6-12.6,7.8c-4.8,2-9.8,2.8-15.1,2.8
		c-3.6,0-6.8-0.5-9.3-1.2c-2.5-0.8-4.3-1.8-5.5-3c-1.3,4.1-2.2,8.3-2.2,12.3c0,6.5,2,12.1,6,17.4c4,5.1,9.3,9.4,15.9,9.4
		c5,0,10.1-1.3,15.2-4c5.1-2.6,9.3-5.1,12.3-7.1c3.5-2.5,6.1-4.6,8.1-6.5s13.4-14.9,14.2-16.2c1-1.3,1.5-2.2,1.8-2.8
		c0.3-0.5,0.7-0.8,1.2-0.8C782.9,310,783.4,310.1,783.7,310.3z M719.8,291.6c-3.1,4.6-4.3,6.1-5.3,11.8c0.7,0.2,2.2,0.3,4.5,0.3
		c4.6,0,6.8-0.8,9.9-2.3c3.1-1.7,4.6-3.1,6.8-5.8c2-2.6,4.3-4.8,5.8-7.3c1.5-2.6,2.3-3.1,2.3-5c0-3-3.3-2.8-6.5-2.8
		c-2.3,0-5,0.8-8.1,2.5C726.3,284.5,723.1,287.5,719.8,291.6z"/>
</g>
<g>
	<path fill="#231F20" d="M386.7,294.4c2.3,0,4.5,0.7,6.5,1.8l4-4v-30.1h-20.7v34.3c0,0,0,0-0.2,0.2H342v20.7h30.1l4-4
		c-1.2-1.8-1.8-4-1.8-6.5C374.1,300,379.8,294.4,386.7,294.4z"/>
	<path fill="#231F20" d="M401.3,296.6l-4,4c1.2,1.8,1.8,4,1.8,6.5c0,7-5.6,12.4-12.4,12.4c-2.3,0-4.5-0.7-6.5-1.8l-4,4v30.1H397
		v-34.3c0,0,0,0,0.2-0.2h34.3v-20.7H401.3z"/>
	<path fill="none" d="M386.7,294.4c-7,0-12.4,5.6-12.4,12.4c0,2.3,0.7,4.5,1.8,6.5l17.1-17.1C391.2,295.1,389,294.4,386.7,294.4z"/>
	<path fill="none" d="M399.1,307c0-2.3-0.7-4.5-1.8-6.5l-17.1,17.1c1.8,1.2,4,1.8,6.5,1.8C393.5,319.4,399.1,313.8,399.1,307z"/>
</g>
<g>
	<path d="M273.5,402.8v-21h5.3c5.1,0,7.1,4.5,7.1,10.4c0,6-2,10.4-7.1,10.4h-5.3V402.8z M281.8,392.4c0-4.6-1-7-3.1-7h-1.3v14.1h1.3
		C280.8,399.4,281.8,396.9,281.8,392.4z"/>
	<path d="M293.5,402.8v-21h9.1v3.5h-5.3v5.1h5v3.5h-5v5.5h5.3v3.5H293.5z"/>
	<path d="M309.1,401.2l1.7-3.1c0.8,1.2,2.2,1.7,3.5,1.7c1.3,0,2.2-1,2.2-2.3c0-3.6-6.6-3.6-6.6-10.1c0-3.1,2.2-5.8,5.8-5.8
		c1.8,0,3.5,0.7,4.6,1.7l-1.5,3c-0.8-0.8-1.8-1.2-2.8-1.2c-1.2,0-2,0.8-2,2.2c0,3.3,6.6,3.6,6.6,9.9c0,3.5-2.3,6.1-6,6.1
		C312.2,403.2,310.6,402.5,309.1,401.2z"/>
	<path d="M328,402.8v-21h4v21H328z"/>
	<path d="M339.5,392.4c0-6.5,2-10.9,6.6-10.9c3,0,4.6,2.2,5.3,5l-3.1,1.2c-0.3-1.5-0.8-2.6-2.2-2.6c-1.7,0-2.5,2.3-2.5,7.3
		s1,7.3,2.5,7.3c0.8,0,1.5-0.3,1.8-1v-3.8h-2.3v-3.5h5.8v8.9c-1.3,1.8-3,2.8-5.3,2.8C341.5,403.2,339.5,398.7,339.5,392.4z"/>
	<path d="M367.7,402.8l-4.3-11.1v11.1h-4v-21h4l4,10.8v-10.8h4v21H367.7z"/>
	<path d="M396.8,401.2l1.7-3.1c0.8,1.2,2.2,1.7,3.5,1.7c1.3,0,2.2-1,2.2-2.3c0-3.6-6.6-3.6-6.6-10.1c0-3.1,2.2-5.8,5.8-5.8
		c1.8,0,3.5,0.7,4.6,1.7l-1.5,3c-0.8-0.8-1.8-1.2-2.8-1.2c-1.2,0-2,0.8-2,2.2c0,3.3,6.6,3.6,6.6,9.9c0,3.5-2.3,6.1-6,6.1
		C400,403.2,398.2,402.5,396.8,401.2z"/>
	<path d="M417.4,402.8v-17.5h-3.1v-3.5h10.3v3.5h-3.1v17.5H417.4z"/>
	<path d="M431.8,396.7v-14.9h4v15.1c0,2,0.8,2.8,2,2.8s2-0.7,2-2.8v-15.1h4v14.9c0,4.5-2.8,6.5-6,6.5S431.8,401.4,431.8,396.7z"/>
	<path d="M452,402.8v-21h5.3c5.1,0,7.1,4.5,7.1,10.4c0,6-2,10.4-7.1,10.4H452V402.8z M460.2,392.4c0-4.6-1-7-3.1-7h-1.3v14.1h1.3
		C459.2,399.4,460.2,396.9,460.2,392.4z"/>
	<path d="M472,402.8v-21h4v21H472z"/>
	<path d="M483.6,392.4c0-6.1,2-10.9,6.6-10.9s6.6,4.6,6.6,10.9c0,6.1-2,10.9-6.6,10.9C485.4,403.2,483.6,398.5,483.6,392.4z
		 M492.5,392.4c0-4.1-0.7-7.3-2.5-7.3s-2.5,3.1-2.5,7.3s0.7,7.3,2.5,7.3C492,399.7,492.5,396.6,492.5,392.4z"/>
</g>
</svg>
